<?xml version="1.0" encoding="UTF-8" standalone="no"?>
<svg
   xmlns:dc="http://purl.org/dc/elements/1.1/"
   xmlns:cc="http://creativecommons.org/ns#"
   xmlns:rdf="http://www.w3.org/1999/02/22-rdf-syntax-ns#"
   xmlns:svg="http://www.w3.org/2000/svg"
   xmlns="http://www.w3.org/2000/svg"
   xmlns:sodipodi="http://sodipodi.sourceforge.net/DTD/sodipodi-0.dtd"
   xmlns:inkscape="http://www.inkscape.org/namespaces/inkscape"
   version="1.1"
   viewBox="0.0 0.0 348.0 348.0"
   fill="none"
   stroke="none"
   stroke-linecap="square"
   stroke-miterlimit="10"
   id="svg19"
   sodipodi:docname="TenButtonColorCode.svg"
   inkscape:version="0.92.3 (2405546, 2018-03-11)">
  <metadata
     id="metadata25">
    <rdf:RDF>
      <cc:Work
         rdf:about="">
        <dc:format>image/svg+xml</dc:format>
        <dc:type
           rdf:resource="http://purl.org/dc/dcmitype/StillImage" />
      </cc:Work>
    </rdf:RDF>
  </metadata>
  <defs
     id="defs23" />
  <sodipodi:namedview
     pagecolor="#ffffff"
     bordercolor="#666666"
     borderopacity="1"
     objecttolerance="10"
     gridtolerance="10"
     guidetolerance="10"
     inkscape:pageopacity="0"
     inkscape:pageshadow="2"
     inkscape:window-width="1920"
     inkscape:window-height="1017"
     id="namedview21"
     showgrid="false"
     inkscape:zoom="2.05"
     inkscape:cx="174"
     inkscape:cy="174"
     inkscape:window-x="1358"
     inkscape:window-y="-8"
     inkscape:window-maximized="1"
     inkscape:current-layer="svg19" />
  <clipPath
     id="p.0">
    <path
       d="m0 0l348.0 0l0 348.0l-348.0 0l0 -348.0z"
       clip-rule="nonzero"
       id="path2" />
  </clipPath>
  <g
     clip-path="url(#p.0)"
     id="g17">
    <path
       d="m0 0l348.0 0l0 348.0l-348.0 0z"
       id="path5"
       fill-rule="nonzero"
       fill-opacity="0.0"
       fill="#000000" />
    <path
       d="m-6.0 0l348.0 0l0 347.9685l-348.0 0z"
       id="path7"
       fill-rule="nonzero"
       fill="#ffffff" />
    <path
       d="m5.07874 5.7758217l336.9134 0l0 337.6693l-336.9134 0z"
       id="path9"
       fill-rule="nonzero"
       fill-opacity="0.0"
       fill="#000000" />
    <path
       d="m5.07874 5.7758217l336.9134 0l0 337.6693l-336.9134 0z"
       id="path11"
       stroke-linejoin="round"
       stroke-linecap="butt"
       stroke-width="2.0"
       stroke="#000000"
       fill-rule="nonzero" />
    <path
       d="m282.73444 40.553925l0 0c0 -8.375591 6.966034 -15.165352 15.5590515 -15.165352l0 0c4.126526 0 8.084015 1.5977726 11.001923 4.441828c2.9178772 2.844057 4.557129 6.7014217 4.557129 10.723524l0 0c0 8.375595 -6.9660034 15.165356 -15.5590515 15.165356l0 0c-8.593018 0 -15.5590515 -6.7897606 -15.5590515 -15.165356z"
       id="path13"
       fill-rule="nonzero"
       fill="#ffffff" />
    <path
       d="m282.73444 40.553925l0 0c0 -8.375591 6.966034 -15.165352 15.5590515 -15.165352l0 0c4.126526 0 8.084015 1.5977726 11.001923 4.441828c2.9178772 2.844057 4.557129 6.7014217 4.557129 10.723524l0 0c0 8.375595 -6.9660034 15.165356 -15.5590515 15.165356l0 0c-8.593018 0 -15.5590515 -6.7897606 -15.5590515 -15.165356z"
       id="path15"
       stroke-linejoin="round"
       stroke-linecap="butt"
       stroke-width="2.0"
       stroke="#000000"
       fill-rule="nonzero" />
  </g>
  <rect
     style="fill:#ffffff;fill-opacity:1;stroke:#000000;stroke-width:6.02529812;stroke-miterlimit:4;stroke-dasharray:48.20238554, 6.02529819;stroke-dashoffset:0;stroke-opacity:1;paint-order:stroke fill markers"
     id="rect832"
     width="263.9747"
     height="135.9747"
     x="41.01265"
     y="89.01265" />
  <rect
     style="fill:#ffffff;fill-opacity:1;stroke:#000000;stroke-width:5.94325781;stroke-miterlimit:4;stroke-dasharray:47.54606099, 5.94325763;stroke-dashoffset:0;stroke-opacity:1;paint-order:stroke fill markers"
     id="rect834"
     width="94.05674"
     height="34.056744"
     x="124.97163"
     y="260.97165" />
  <ellipse
     style="fill:#ffffff;fill-opacity:1;stroke:#000000;stroke-width:6.05627203;stroke-miterlimit:4;stroke-dasharray:48.45017653, 6.05627207;stroke-dashoffset:0;stroke-opacity:1;paint-order:stroke fill markers"
     id="path836"
     cx="56"
     cy="47"
     rx="17.971863"
     ry="17.971865" />
  <ellipse
     style="fill:#ffffff;fill-opacity:1;stroke:#000000;stroke-width:6.05627203;stroke-miterlimit:4;stroke-dasharray:48.45017653, 6.05627207;stroke-dashoffset:0;stroke-opacity:1;paint-order:stroke fill markers"
     id="path836-3"
     cx="111"
     cy="47"
     rx="17.971863"
     ry="17.971865" />
  <rect
     style="fill:#ffffff;fill-opacity:1;stroke:#000000;stroke-width:6.00772905;stroke-miterlimit:4;stroke-dasharray:48.06183211, 6.00772902;stroke-dashoffset:0;stroke-opacity:1;paint-order:stroke fill markers"
     id="rect853"
     width="35.992271"
     height="51.992271"
     x="54.003864"
     y="98.00386" />
  <rect
     style="fill:#ffffff;fill-opacity:1;stroke:#000000;stroke-width:6.00772905;stroke-miterlimit:4;stroke-dasharray:48.06183211, 6.00772902;stroke-dashoffset:0;stroke-opacity:1;paint-order:stroke fill markers"
     id="rect853-0"
     width="35.992271"
     height="51.992271"
     x="54.003864"
     y="164.00386" />
  <rect
     style="fill:#ffffff;fill-opacity:1;stroke:#000000;stroke-width:6.00772905;stroke-miterlimit:4;stroke-dasharray:48.06183211, 6.00772902;stroke-dashoffset:0;stroke-opacity:1;paint-order:stroke fill markers"
     id="rect853-9"
     width="35.992271"
     height="51.992271"
     x="104.00387"
     y="98.003876" />
  <rect
     style="fill:#ffffff;fill-opacity:1;stroke:#000000;stroke-width:6.00772905;stroke-miterlimit:4;stroke-dasharray:48.06183211, 6.00772902;stroke-dashoffset:0;stroke-opacity:1;paint-order:stroke fill markers"
     id="rect853-0-8"
     width="35.992271"
     height="51.992271"
     x="104.00387"
     y="164.00386" />
  <rect
     style="fill:#ffffff;fill-opacity:1;stroke:#000000;stroke-width:6.00772905;stroke-miterlimit:4;stroke-dasharray:48.06183211, 6.00772902;stroke-dashoffset:0;stroke-opacity:1;paint-order:stroke fill markers"
     id="rect853-9-3"
     width="35.992271"
     height="51.992271"
     x="154.00386"
     y="98.003883" />
  <rect
     style="fill:#ffffff;fill-opacity:1;stroke:#000000;stroke-width:6.00772905;stroke-miterlimit:4;stroke-dasharray:48.06183211, 6.00772902;stroke-dashoffset:0;stroke-opacity:1;paint-order:stroke fill markers"
     id="rect853-0-8-6"
     width="35.992271"
     height="51.992271"
     x="154.00386"
     y="164.00386" />
  <rect
     style="fill:#ffffff;fill-opacity:1;stroke:#000000;stroke-width:6.00772905;stroke-miterlimit:4;stroke-dasharray:48.06183211, 6.00772902;stroke-dashoffset:0;stroke-opacity:1;paint-order:stroke fill markers"
     id="rect853-9-3-6"
     width="35.992271"
     height="51.992271"
     x="204.00386"
     y="98.003876" />
  <rect
     style="fill:#ffffff;fill-opacity:1;stroke:#000000;stroke-width:6.00772905;stroke-miterlimit:4;stroke-dasharray:48.06183211, 6.00772902;stroke-dashoffset:0;stroke-opacity:1;paint-order:stroke fill markers"
     id="rect853-0-8-6-7"
     width="35.992271"
     height="51.992271"
     x="204.00386"
     y="164.00386" />
  <rect
     style="fill:#ffffff;fill-opacity:1;stroke:#000000;stroke-width:6.00772905;stroke-miterlimit:4;stroke-dasharray:48.06183211, 6.00772902;stroke-dashoffset:0;stroke-opacity:1;paint-order:stroke fill markers"
     id="rect853-9-3-6-7"
     width="35.992271"
     height="51.992271"
     x="254.00386"
     y="98.003868" />
  <rect
     style="fill:#ffffff;fill-opacity:1;stroke:#000000;stroke-width:6.00772905;stroke-miterlimit:4;stroke-dasharray:48.06183211, 6.00772902;stroke-dashoffset:0;stroke-opacity:1;paint-order:stroke fill markers"
     id="rect853-0-8-6-7-5"
     width="35.992271"
     height="51.992271"
     x="254.00386"
     y="164.00386" />
  <g
     aria-label="Submit"
     style="font-style:normal;font-variant:normal;font-weight:normal;font-stretch:normal;font-size:34.66666794px;line-height:1.25;font-family:'Filbert Color Personal Use';-inkscape-font-specification:'Filbert Color Personal Use';letter-spacing:0px;word-spacing:0px;fill:#000000;fill-opacity:1;stroke:none"
     id="text983">
    <path
       d="m 128.48,286.87335 q -0.832,-0.55467 -1.21333,-1.352 -0.34667,-0.79734 -0.24267,-1.56 0.104,-0.79734 0.728,-1.38667 0.624,-0.58933 1.768,-0.76267 0.0347,0.832 0.65867,1.352 0.65867,0.52 1.59467,0.728 0.936,0.17334 2.01066,0.0347 1.07467,-0.13867 1.90667,-0.58933 0.45067,-0.208 0.97067,-0.58934 0.52,-0.416 0.936,-0.86666 0.416,-0.45067 0.58933,-0.90134 0.208,-0.45066 0,-0.79733 -0.27733,-0.38133 -0.936,-0.55467 -0.624,-0.208 -1.42133,-0.312 -0.79734,-0.13866 -1.62934,-0.312 -0.832,-0.17333 -1.456,-0.52 -2.6,-1.42133 -1.38666,-4.29866 0.58933,-1.38667 1.69866,-2.496 1.10934,-1.144 2.32267,-1.94134 1.21333,-0.832 2.6,-1.456 1.42133,-0.624 2.87733,-0.69333 1.456,-0.0693 2.496,0.48533 1.04,0.55467 1.31734,2.04534 0.13866,0.79733 -0.104,1.52533 -0.24267,0.728 -0.58934,1.38667 -0.34666,0.624 -0.65866,1.17866 -0.312,0.52 -0.34667,0.936 -0.208,0.17334 -0.58933,0.27734 -0.34667,0.104 -0.76267,0.104 -0.38133,0 -0.76267,-0.13867 -0.34666,-0.13867 -0.55466,-0.45067 -0.312,-0.52 -0.104,-1.21333 0.24266,-0.69333 0.52,-1.28267 0.312,-0.58933 0.416,-0.97066 0.104,-0.38134 -0.45067,-0.34667 -1.352,0.104 -2.66933,0.79733 -1.28267,0.69334 -2.32267,1.768 -0.312,0.34667 -0.624,0.76267 -0.312,0.416 -0.55467,0.832 -0.24266,0.38133 -0.34666,0.69333 -0.104,0.312 0,0.416 0.38133,0.416 1.07466,0.624 0.69334,0.208 1.49067,0.34667 0.832,0.13867 1.664,0.27733 0.86667,0.13867 1.59467,0.416 0.728,0.27734 1.21333,0.76267 0.52,0.45067 0.624,1.28267 0.104,0.728 -0.104,1.49066 -0.17333,0.76267 -0.58933,1.49067 -0.38134,0.728 -0.936,1.352 -0.52,0.624 -1.10934,1.10933 -1.10933,0.86667 -2.46133,1.49067 -1.352,0.58933 -2.77333,0.832 -1.38667,0.24267 -2.808,0 -1.38667,-0.208 -2.56534,-1.00533 z"
       style=""
       id="path985" />
    <path
       d="m 154.02554,287.49735 q -1.664,0 -2.42666,-0.38134 -0.76267,-0.416 -0.90134,-1.07466 -0.104,-0.69334 0.208,-1.52534 0.312,-0.86666 0.76267,-1.768 -1.21333,1.17867 -2.42667,2.184 -1.21333,1.00534 -2.392,1.69867 -1.144,0.65867 -2.184,0.936 -1.00533,0.24267 -1.768,-0.0693 -1.144,-0.48534 -1.07466,-1.664 0.0347,-1.17867 0.79733,-2.704 0.728,-1.52534 1.83733,-3.224 1.144,-1.69867 2.11467,-3.18934 1.00533,-1.52533 1.56,-2.63466 0.55467,-1.144 0.17333,-1.56 0.55467,-0.52 1.248,-0.65867 0.728,-0.17333 1.352,0 0.65867,0.13867 1.04,0.624 0.416,0.45067 0.34667,1.17867 -0.0693,0.69333 -0.624,1.73333 -0.55467,1.04 -1.352,2.21867 -0.76267,1.144 -1.59467,2.32266 -0.832,1.17867 -1.49066,2.184 -0.624,0.97067 -0.936,1.664 -0.312,0.69334 0,0.86667 0.34666,0.208 1.28266,-0.34667 0.97067,-0.58933 2.21867,-1.664 1.248,-1.10933 2.66933,-2.63466 1.42134,-1.52534 2.66934,-3.224 0.832,-1.456 1.38666,-2.66934 0.58934,-1.21333 0.48534,-1.80266 0.24266,-0.104 0.728,-0.208 0.52,-0.104 1.04,-0.104 0.55466,0 1.04,0.17333 0.48533,0.13867 0.69333,0.58933 0.45067,0.86667 0,2.14934 -0.45067,1.28266 -1.352,2.77333 -0.86667,1.456 -1.976,2.98133 -1.07467,1.52534 -1.94133,2.87734 -0.86667,1.352 -1.28267,2.392 -0.416,1.04 0.0693,1.56 z"
       style=""
       id="path987" />
    <path
       d="m 169.17271,274.04668 q 0.34667,-1.10933 1.28267,-1.62933 0.936,-0.55467 1.872,-0.38134 0.97067,0.17334 1.62933,1.10934 0.65867,0.90133 0.416,2.704 -0.208,1.42133 -0.936,2.98133 -0.728,1.52533 -1.56,2.704 -0.79733,1.144 -2.11466,2.392 -1.31734,1.248 -2.84267,2.184 -1.52533,0.90133 -3.12,1.28267 -1.59467,0.34666 -2.912,-0.24267 -1.59467,-0.728 -1.94133,-1.872 -0.34667,-1.17867 0,-2.496 0.34666,-1.352 1.144,-2.704 0.79733,-1.352 1.52533,-2.496 1.248,-1.94133 2.46133,-3.848 1.21334,-1.94133 2.14934,-3.536 0.936,-1.62933 1.42133,-2.808 0.48533,-1.17867 0.27733,-1.664 0.17334,-0.0347 0.65867,-0.13867 0.52,-0.13866 1.10933,-0.17333 0.58934,-0.0693 1.144,0 0.55467,0.0347 0.832,0.27733 0.55467,0.48534 0.312,1.52534 -0.24266,1.00533 -0.97066,2.35733 -0.728,1.31733 -1.83734,2.87733 -1.07466,1.56 -2.25333,3.15467 -1.144,1.59467 -2.25333,3.12 -1.10934,1.49067 -1.90667,2.77333 -0.76267,1.248 -1.07467,2.14934 -0.27733,0.86666 0.208,1.21333 0.48534,0.38133 1.31734,0.0693 0.86666,-0.34666 1.83733,-1.10933 1.00533,-0.76267 1.976,-1.80267 1.00533,-1.04 1.768,-2.14933 0.728,-1.04 1.144,-2.08 0.45067,-1.04 0.52,-1.872 0.104,-0.832 -0.208,-1.352 -0.312,-0.52 -1.07467,-0.52 z"
       style=""
       id="path989" />
    <path
       d="m 173.70646,282.60935 q 0.45067,-0.936 1.352,-2.42667 0.936,-1.49067 1.83734,-3.016 0.936,-1.56 1.56,-2.87733 0.65866,-1.352 0.55466,-1.976 0.24267,-0.104 0.728,-0.208 0.52,-0.104 1.04,-0.104 0.55467,0 1.00534,0.17333 0.48533,0.13867 0.69333,0.58933 0.24267,0.48534 0.208,1.10934 -0.0347,0.58933 -0.27733,1.28266 1.768,-1.664 3.46666,-2.56533 1.69867,-0.90133 2.94667,-0.416 1.00533,0.416 1.10933,1.38667 0.13867,0.97066 -0.27733,2.25333 0.90133,-0.97067 1.80267,-1.73333 0.936,-0.79734 1.80266,-1.31734 0.90134,-0.52 1.69867,-0.69333 0.79733,-0.17333 1.49067,0.104 0.86666,0.34667 1.07466,1.10933 0.24267,0.76267 0.0347,1.80267 -0.208,1.00533 -0.76267,2.21867 -0.52,1.21333 -1.21333,2.46133 -0.65867,1.248 -1.352,2.46133 -0.65867,1.17867 -1.17867,2.184 -0.48533,1.00534 -0.69333,1.73334 -0.17333,0.69333 0.104,1.00533 -0.55467,0.52 -1.31733,0.69333 -0.728,0.17334 -1.42134,0 -0.69333,-0.13866 -1.21333,-0.58933 -0.48533,-0.48533 -0.55467,-1.28267 -0.0693,-0.69333 0.38134,-1.69866 0.48533,-1.04 1.144,-2.184 0.69333,-1.17867 1.456,-2.32267 0.79733,-1.17867 1.38666,-2.14933 0.624,-1.00534 0.90134,-1.69867 0.27733,-0.69333 0,-0.86667 -0.312,-0.208 -1.04,0.27734 -0.69334,0.48533 -1.62934,1.456 -0.90133,0.97066 -1.976,2.32266 -1.07466,1.31734 -2.14933,2.87734 -0.55467,0.936 -1.04,1.768 -0.48533,0.832 -0.79733,1.52533 -0.312,0.65867 -0.416,1.144 -0.0693,0.48533 0.17333,0.728 -0.55467,0.52 -1.31733,0.69333 -0.728,0.17334 -1.42134,0 -0.69333,-0.13866 -1.21333,-0.58933 -0.48533,-0.48533 -0.55467,-1.28267 -0.0347,-0.69333 0.45067,-1.69866 0.48533,-1.04 1.21333,-2.184 0.76267,-1.17867 1.59467,-2.32267 0.832,-1.17867 1.49067,-2.14933 0.65866,-1.00534 0.97066,-1.69867 0.312,-0.69333 0.0347,-0.86667 -0.34667,-0.208 -1.21333,0.34667 -0.832,0.55467 -1.94134,1.664 -1.07466,1.07467 -2.35733,2.6 -1.248,1.49067 -2.42667,3.18933 -1.07466,1.59467 -1.664,2.84267 -0.55466,1.21333 0,1.80267 -1.69866,0 -2.42666,-0.416 -0.76267,-0.416 -0.86667,-1.10934 -0.13867,-0.69333 0.208,-1.56 0.34667,-0.90133 0.79733,-1.80266 z"
       style=""
       id="path991" />
    <path
       d="m 196.62654,282.60935 q 0.52,-0.832 1.38667,-2.184 0.90133,-1.352 1.73333,-2.77334 0.832,-1.42133 1.38667,-2.66933 0.58933,-1.248 0.48533,-1.872 0.24267,-0.104 0.86667,-0.13867 0.624,-0.0347 1.28267,0.0347 0.65866,0.0347 1.248,0.27733 0.58933,0.208 0.79733,0.624 0.38133,0.79734 -0.104,2.01067 -0.45067,1.17867 -1.352,2.56533 -0.86667,1.352 -1.976,2.808 -1.10933,1.42134 -2.04533,2.66934 -0.90134,1.248 -1.456,2.184 -0.52,0.936 -0.27734,1.352 -1.69866,0 -2.42666,-0.416 -0.728,-0.45067 -0.79734,-1.144 -0.104,-0.728 0.312,-1.59467 0.38134,-0.86667 0.936,-1.73333 z m 11.16267,-10.53867 q -1.49067,-0.312 -2.11467,-0.76267 -0.624,-0.48533 -0.728,-1.04 -0.0693,-0.55466 0.208,-1.144 0.312,-0.624 0.65867,-1.21333 0.38133,-0.624 0.65867,-1.17867 0.27733,-0.55466 0.17333,-1.00533 0.27733,-0.104 0.832,-0.17333 0.55467,-0.0693 1.144,0 0.58933,0.0347 1.10933,0.312 0.52,0.27733 0.76267,0.832 0.27733,0.69333 -0.104,1.352 -0.34667,0.65866 -0.90133,1.31733 -0.55467,0.65867 -1.10934,1.352 -0.52,0.65867 -0.58933,1.352 z"
       style=""
       id="path993" />
    <path
       d="m 210.53113,284.96668 q -0.104,0.48533 -0.312,1.00533 -0.208,0.48534 -0.55467,0.90134 -0.34667,0.38133 -0.86667,0.624 -0.48533,0.208 -1.144,0.13866 -0.312,-0.0347 -0.728,-0.24266 -0.416,-0.24267 -0.76266,-0.69334 -0.34667,-0.45066 -0.55467,-1.17866 -0.208,-0.728 -0.104,-1.768 0.13867,-1.04 0.65867,-2.392 0.52,-1.38667 1.62933,-3.18934 l 2.01067,-3.328 q -0.624,-0.0693 -1.07467,-0.0347 -0.45067,0.0347 -0.52,0.312 -0.27733,-0.34667 -0.27733,-0.832 0.0347,-0.48534 0.208,-0.936 0.17333,-0.48534 0.52,-0.86667 0.34666,-0.38133 0.76266,-0.52 0.34667,-0.104 0.86667,-0.0347 0.55467,0.0347 1.21333,0.13867 1.248,-2.11467 1.83734,-3.36267 0.624,-1.28266 0.312,-1.56 2.53066,-0.69333 2.98133,0.79734 0.45067,1.456 -1.56,4.68 0.58933,0 1.10933,-0.104 0.52,-0.104 0.90134,-0.416 0.24266,0.208 0.24266,0.69333 0.0347,0.48533 -0.17333,1.04 -0.17333,0.55467 -0.58933,1.07467 -0.38134,0.52 -1.00534,0.76266 -0.416,0.17334 -1.07466,0.13867 -0.65867,-0.0693 -1.42134,-0.24267 -1.28266,1.872 -2.21866,3.57067 -0.90134,1.69867 -1.31734,3.016 -0.38133,1.28267 -0.208,2.04533 0.208,0.76267 1.21334,0.76267 z"
       style=""
       id="path995" />
  </g>
</svg>
